<svg width="245" height="50" viewBox="0 0 245 50" fill="none" xmlns="http://www.w3.org/2000/svg">
<rect width="245" height="50" rx="5" fill="#2981AE"/>
<path d="M38.2273 25.1818C38.2273 26.4091 38.0057 27.4697 37.5625 28.3636C37.1193 29.2576 36.5114 29.947 35.7386 30.4318C34.9659 30.9167 34.0833 31.1591 33.0909 31.1591C32.0985 31.1591 31.2159 30.9167 30.4432 30.4318C29.6705 29.947 29.0625 29.2576 28.6193 28.3636C28.1761 27.4697 27.9545 26.4091 27.9545 25.1818C27.9545 23.9545 28.1761 22.8939 28.6193 22C29.0625 21.1061 29.6705 20.4167 30.4432 19.9318C31.2159 19.447 32.0985 19.2045 33.0909 19.2045C34.0833 19.2045 34.9659 19.447 35.7386 19.9318C36.5114 20.4167 37.1193 21.1061 37.5625 22C38.0057 22.8939 38.2273 23.9545 38.2273 25.1818ZM36.8636 25.1818C36.8636 24.1742 36.6951 23.3239 36.358 22.6307C36.0246 21.9375 35.572 21.4129 35 21.0568C34.4318 20.7008 33.7955 20.5227 33.0909 20.5227C32.3864 20.5227 31.7481 20.7008 31.1761 21.0568C30.608 21.4129 30.1553 21.9375 29.8182 22.6307C29.4848 23.3239 29.3182 24.1742 29.3182 25.1818C29.3182 26.1894 29.4848 27.0398 29.8182 27.733C30.1553 28.4261 30.608 28.9508 31.1761 29.3068C31.7481 29.6629 32.3864 29.8409 33.0909 29.8409C33.7955 29.8409 34.4318 29.6629 35 29.3068C35.572 28.9508 36.0246 28.4261 36.358 27.733C36.6951 27.0398 36.8636 26.1894 36.8636 25.1818ZM43.9602 31.1818C43.142 31.1818 42.4375 30.9886 41.8466 30.6023C41.2557 30.2159 40.8011 29.6837 40.483 29.0057C40.1648 28.3277 40.0057 27.553 40.0057 26.6818C40.0057 25.7955 40.1686 25.0133 40.4943 24.3352C40.8239 23.6534 41.2822 23.1212 41.8693 22.7386C42.4602 22.3523 43.1496 22.1591 43.9375 22.1591C44.5511 22.1591 45.1042 22.2727 45.5966 22.5C46.089 22.7273 46.4924 23.0455 46.8068 23.4545C47.1212 23.8636 47.3163 24.3409 47.392 24.8864H46.0511C45.9489 24.4886 45.7216 24.1364 45.3693 23.8295C45.0208 23.5189 44.5511 23.3636 43.9602 23.3636C43.4375 23.3636 42.9792 23.5 42.5852 23.7727C42.1951 24.0417 41.8902 24.4223 41.6705 24.9148C41.4545 25.4034 41.3466 25.9773 41.3466 26.6364C41.3466 27.3106 41.4527 27.8977 41.6648 28.3977C41.8807 28.8977 42.1837 29.286 42.5739 29.5625C42.9678 29.839 43.4299 29.9773 43.9602 29.9773C44.3087 29.9773 44.625 29.9167 44.9091 29.7955C45.1932 29.6742 45.4337 29.5 45.6307 29.2727C45.8277 29.0455 45.9678 28.7727 46.0511 28.4545H47.392C47.3163 28.9697 47.1288 29.4337 46.8295 29.8466C46.5341 30.2557 46.142 30.5814 45.6534 30.8239C45.1686 31.0625 44.6042 31.1818 43.9602 31.1818ZM48.6648 23.5227V22.2727H55.7557V23.5227H52.892V31H51.5511V23.5227H48.6648ZM59.8267 31.2045C59.2737 31.2045 58.7718 31.1004 58.321 30.892C57.8703 30.6799 57.5123 30.375 57.2472 29.9773C56.982 29.5758 56.8494 29.0909 56.8494 28.5227C56.8494 28.0227 56.9479 27.6174 57.1449 27.3068C57.3419 26.9924 57.6051 26.7462 57.9347 26.5682C58.2642 26.3902 58.6278 26.2576 59.0256 26.1705C59.4271 26.0795 59.8305 26.0076 60.2358 25.9545C60.7661 25.8864 61.196 25.8352 61.5256 25.8011C61.8589 25.7633 62.1013 25.7008 62.2528 25.6136C62.4081 25.5265 62.4858 25.375 62.4858 25.1591V25.1136C62.4858 24.553 62.3324 24.1174 62.0256 23.8068C61.7225 23.4962 61.2623 23.3409 60.6449 23.3409C60.0047 23.3409 59.5028 23.4811 59.1392 23.7614C58.7756 24.0417 58.5199 24.3409 58.3722 24.6591L57.0994 24.2045C57.3267 23.6742 57.6297 23.2614 58.0085 22.9659C58.3911 22.6667 58.8078 22.4583 59.2585 22.3409C59.7131 22.2197 60.16 22.1591 60.5994 22.1591C60.8797 22.1591 61.2017 22.1932 61.5653 22.2614C61.9328 22.3258 62.2869 22.4602 62.6278 22.6648C62.9725 22.8693 63.2585 23.178 63.4858 23.5909C63.7131 24.0038 63.8267 24.5568 63.8267 25.25V31H62.4858V29.8182H62.4176C62.3267 30.0076 62.1752 30.2102 61.9631 30.4261C61.7509 30.642 61.4688 30.8258 61.1165 30.9773C60.7642 31.1288 60.3343 31.2045 59.8267 31.2045ZM60.0312 30C60.5616 30 61.0085 29.8958 61.3722 29.6875C61.7396 29.4792 62.0161 29.2102 62.2017 28.8807C62.3911 28.5511 62.4858 28.2045 62.4858 27.8409V26.6136C62.429 26.6818 62.304 26.7443 62.1108 26.8011C61.9214 26.8542 61.7017 26.9015 61.4517 26.9432C61.2055 26.9811 60.965 27.0152 60.7301 27.0455C60.4991 27.072 60.3116 27.0947 60.1676 27.1136C59.8191 27.1591 59.4934 27.233 59.1903 27.3352C58.8911 27.4337 58.6487 27.5833 58.4631 27.7841C58.2813 27.9811 58.1903 28.25 58.1903 28.5909C58.1903 29.0568 58.3627 29.4091 58.7074 29.6477C59.0559 29.8826 59.4972 30 60.0312 30ZM66.2741 31V22.2727H69.8423C70.7817 22.2727 71.5279 22.4848 72.081 22.9091C72.634 23.3333 72.9105 23.8939 72.9105 24.5909C72.9105 25.1212 72.7533 25.5322 72.4389 25.8239C72.1245 26.1117 71.7211 26.3068 71.2287 26.4091C71.5507 26.4545 71.8632 26.5682 72.1662 26.75C72.473 26.9318 72.7268 27.1818 72.9276 27.5C73.1283 27.8144 73.2287 28.2008 73.2287 28.6591C73.2287 29.1061 73.1151 29.5057 72.8878 29.858C72.6605 30.2102 72.3348 30.4886 71.9105 30.6932C71.4863 30.8977 70.9787 31 70.3878 31H66.2741ZM67.5469 29.7727H70.3878C70.8499 29.7727 71.2116 29.6629 71.473 29.4432C71.7344 29.2235 71.8651 28.9242 71.8651 28.5455C71.8651 28.0947 71.7344 27.7405 71.473 27.483C71.2116 27.2216 70.8499 27.0909 70.3878 27.0909H67.5469V29.7727ZM67.5469 25.9318H69.8423C70.2022 25.9318 70.5109 25.8826 70.7685 25.7841C71.026 25.6818 71.223 25.5379 71.3594 25.3523C71.4995 25.1629 71.5696 24.9394 71.5696 24.6818C71.5696 24.3144 71.4162 24.0265 71.1094 23.8182C70.8026 23.6061 70.3802 23.5 69.8423 23.5H67.5469V25.9318ZM76.5994 29.0227L80.804 22.2727H82.3494V31H81.0085V24.25L76.8267 31H75.2585V22.2727H76.5994V29.0227ZM83.6179 23.5227V22.2727H90.7088V23.5227H87.8452V31H86.5043V23.5227H83.6179ZM93.8239 25.4318H96.3239C97.3466 25.4318 98.1288 25.6913 98.6705 26.2102C99.2121 26.7292 99.483 27.3864 99.483 28.1818C99.483 28.7045 99.3617 29.1799 99.1193 29.608C98.8769 30.0322 98.5208 30.3712 98.0511 30.625C97.5814 30.875 97.0057 31 96.3239 31H92.6648V22.2727H94.0057V29.75H96.3239C96.8542 29.75 97.2898 29.6098 97.6307 29.3295C97.9716 29.0492 98.142 28.6894 98.142 28.25C98.142 27.7879 97.9716 27.411 97.6307 27.1193C97.2898 26.8277 96.8542 26.6818 96.3239 26.6818H93.8239V25.4318ZM105.479 28.7727H106.911C106.941 29.1667 107.119 29.4659 107.445 29.6705C107.774 29.875 108.202 29.9773 108.729 29.9773C109.267 29.9773 109.727 29.8674 110.109 29.6477C110.492 29.4242 110.683 29.0644 110.683 28.5682C110.683 28.2765 110.611 28.0227 110.467 27.8068C110.323 27.5871 110.121 27.4167 109.859 27.2955C109.598 27.1742 109.289 27.1136 108.933 27.1136H107.433V25.9091H108.933C109.467 25.9091 109.861 25.7879 110.115 25.5455C110.373 25.303 110.501 25 110.501 24.6364C110.501 24.2462 110.363 23.9337 110.087 23.6989C109.81 23.4602 109.418 23.3409 108.911 23.3409C108.399 23.3409 107.973 23.4564 107.632 23.6875C107.291 23.9148 107.111 24.2083 107.092 24.5682H105.683C105.698 24.0985 105.842 23.6837 106.115 23.3239C106.388 22.9602 106.759 22.6761 107.229 22.4716C107.698 22.2633 108.236 22.1591 108.842 22.1591C109.456 22.1591 109.988 22.267 110.439 22.483C110.893 22.6951 111.244 22.9848 111.49 23.3523C111.74 23.7159 111.865 24.1288 111.865 24.5909C111.865 25.0833 111.727 25.4811 111.45 25.7841C111.174 26.0871 110.827 26.303 110.411 26.4318V26.5227C110.74 26.5455 111.026 26.6515 111.268 26.8409C111.515 27.0265 111.706 27.2708 111.842 27.5739C111.979 27.8731 112.047 28.2045 112.047 28.5682C112.047 29.0985 111.905 29.5606 111.621 29.9545C111.337 30.3447 110.946 30.6477 110.45 30.8636C109.954 31.0758 109.388 31.1818 108.751 31.1818C108.134 31.1818 107.581 31.0814 107.092 30.8807C106.604 30.6761 106.215 30.3939 105.928 30.0341C105.643 29.6705 105.494 29.25 105.479 28.7727ZM116.499 31.2045C115.946 31.2045 115.444 31.1004 114.993 30.892C114.542 30.6799 114.184 30.375 113.919 29.9773C113.654 29.5758 113.521 29.0909 113.521 28.5227C113.521 28.0227 113.62 27.6174 113.817 27.3068C114.014 26.9924 114.277 26.7462 114.607 26.5682C114.936 26.3902 115.3 26.2576 115.697 26.1705C116.099 26.0795 116.502 26.0076 116.908 25.9545C117.438 25.8864 117.868 25.8352 118.197 25.8011C118.531 25.7633 118.773 25.7008 118.925 25.6136C119.08 25.5265 119.158 25.375 119.158 25.1591V25.1136C119.158 24.553 119.004 24.1174 118.697 23.8068C118.394 23.4962 117.934 23.3409 117.317 23.3409C116.677 23.3409 116.175 23.4811 115.811 23.7614C115.447 24.0417 115.192 24.3409 115.044 24.6591L113.771 24.2045C113.999 23.6742 114.302 23.2614 114.68 22.9659C115.063 22.6667 115.48 22.4583 115.93 22.3409C116.385 22.2197 116.832 22.1591 117.271 22.1591C117.552 22.1591 117.874 22.1932 118.237 22.2614C118.605 22.3258 118.959 22.4602 119.3 22.6648C119.644 22.8693 119.93 23.178 120.158 23.5909C120.385 24.0038 120.499 24.5568 120.499 25.25V31H119.158V29.8182H119.089C118.999 30.0076 118.847 30.2102 118.635 30.4261C118.423 30.642 118.141 30.8258 117.788 30.9773C117.436 31.1288 117.006 31.2045 116.499 31.2045ZM116.703 30C117.233 30 117.68 29.8958 118.044 29.6875C118.411 29.4792 118.688 29.2102 118.874 28.8807C119.063 28.5511 119.158 28.2045 119.158 27.8409V26.6136C119.101 26.6818 118.976 26.7443 118.783 26.8011C118.593 26.8542 118.374 26.9015 118.124 26.9432C117.877 26.9811 117.637 27.0152 117.402 27.0455C117.171 27.072 116.983 27.0947 116.839 27.1136C116.491 27.1591 116.165 27.233 115.862 27.3352C115.563 27.4337 115.321 27.5833 115.135 27.7841C114.953 27.9811 114.862 28.25 114.862 28.5909C114.862 29.0568 115.035 29.4091 115.379 29.6477C115.728 29.8826 116.169 30 116.703 30ZM128.196 31V23.5H125.878C125.355 23.5 124.944 23.6212 124.645 23.8636C124.346 24.1061 124.196 24.4394 124.196 24.8636C124.196 25.2803 124.33 25.608 124.599 25.8466C124.872 26.0852 125.245 26.2045 125.719 26.2045H128.537V27.4545H125.719C125.128 27.4545 124.618 27.3504 124.19 27.142C123.762 26.9337 123.433 26.6364 123.202 26.25C122.971 25.8598 122.855 25.3977 122.855 24.8636C122.855 24.3258 122.976 23.8636 123.219 23.4773C123.461 23.0909 123.808 22.7936 124.259 22.5852C124.713 22.3769 125.253 22.2727 125.878 22.2727H129.469V31H128.196ZM122.378 31L124.855 26.6591H126.31L123.832 31H122.378ZM131.93 31V22.2727H135.499C136.438 22.2727 137.184 22.4848 137.737 22.9091C138.29 23.3333 138.567 23.8939 138.567 24.5909C138.567 25.1212 138.41 25.5322 138.095 25.8239C137.781 26.1117 137.377 26.3068 136.885 26.4091C137.207 26.4545 137.519 26.5682 137.822 26.75C138.129 26.9318 138.383 27.1818 138.584 27.5C138.785 27.8144 138.885 28.2008 138.885 28.6591C138.885 29.1061 138.771 29.5057 138.544 29.858C138.317 30.2102 137.991 30.4886 137.567 30.6932C137.143 30.8977 136.635 31 136.044 31H131.93ZM133.203 29.7727H136.044C136.506 29.7727 136.868 29.6629 137.129 29.4432C137.391 29.2235 137.521 28.9242 137.521 28.5455C137.521 28.0947 137.391 27.7405 137.129 27.483C136.868 27.2216 136.506 27.0909 136.044 27.0909H133.203V29.7727ZM133.203 25.9318H135.499C135.858 25.9318 136.167 25.8826 136.425 25.7841C136.682 25.6818 136.879 25.5379 137.016 25.3523C137.156 25.1629 137.226 24.9394 137.226 24.6818C137.226 24.3144 137.072 24.0265 136.766 23.8182C136.459 23.6061 136.036 23.5 135.499 23.5H133.203V25.9318ZM140.915 31V22.2727H142.256V26.0682H143.142L146.278 22.2727H148.006L144.483 26.4773L148.051 31H146.324L143.46 27.3182H142.256V31H140.915ZM150.372 34.2727C150.145 34.2727 149.942 34.2538 149.764 34.2159C149.586 34.1818 149.463 34.1477 149.395 34.1136L149.736 32.9318C150.062 33.0152 150.349 33.0455 150.599 33.0227C150.849 33 151.071 32.8883 151.264 32.6875C151.461 32.4905 151.641 32.1705 151.804 31.7273L152.054 31.0455L148.827 22.2727H150.281L152.69 29.2273H152.781L155.19 22.2727H156.645L152.94 32.2727C152.774 32.7235 152.567 33.0966 152.321 33.392C152.075 33.6913 151.789 33.9129 151.463 34.0568C151.141 34.2008 150.777 34.2727 150.372 34.2727ZM166.46 31.1818C165.642 31.1818 164.938 30.9886 164.347 30.6023C163.756 30.2159 163.301 29.6837 162.983 29.0057C162.665 28.3277 162.506 27.553 162.506 26.6818C162.506 25.7955 162.669 25.0133 162.994 24.3352C163.324 23.6534 163.782 23.1212 164.369 22.7386C164.96 22.3523 165.65 22.1591 166.438 22.1591C167.051 22.1591 167.604 22.2727 168.097 22.5C168.589 22.7273 168.992 23.0455 169.307 23.4545C169.621 23.8636 169.816 24.3409 169.892 24.8864H168.551C168.449 24.4886 168.222 24.1364 167.869 23.8295C167.521 23.5189 167.051 23.3636 166.46 23.3636C165.938 23.3636 165.479 23.5 165.085 23.7727C164.695 24.0417 164.39 24.4223 164.17 24.9148C163.955 25.4034 163.847 25.9773 163.847 26.6364C163.847 27.3106 163.953 27.8977 164.165 28.3977C164.381 28.8977 164.684 29.286 165.074 29.5625C165.468 29.839 165.93 29.9773 166.46 29.9773C166.809 29.9773 167.125 29.9167 167.409 29.7955C167.693 29.6742 167.934 29.5 168.131 29.2727C168.328 29.0455 168.468 28.7727 168.551 28.4545H169.892C169.816 28.9697 169.629 29.4337 169.33 29.8466C169.034 30.2557 168.642 30.5814 168.153 30.8239C167.669 31.0625 167.104 31.1818 166.46 31.1818ZM175.511 31.1818C174.67 31.1818 173.945 30.9962 173.335 30.625C172.729 30.25 172.261 29.7273 171.932 29.0568C171.606 28.3826 171.443 27.5985 171.443 26.7045C171.443 25.8106 171.606 25.0227 171.932 24.3409C172.261 23.6553 172.72 23.1212 173.307 22.7386C173.898 22.3523 174.587 22.1591 175.375 22.1591C175.83 22.1591 176.278 22.2348 176.722 22.3864C177.165 22.5379 177.568 22.7841 177.932 23.125C178.295 23.4621 178.585 23.9091 178.801 24.4659C179.017 25.0227 179.125 25.7083 179.125 26.5227V27.0909H172.398V25.9318H177.761C177.761 25.4394 177.663 25 177.466 24.6136C177.273 24.2273 176.996 23.9223 176.636 23.6989C176.28 23.4754 175.86 23.3636 175.375 23.3636C174.841 23.3636 174.379 23.4962 173.989 23.7614C173.602 24.0227 173.305 24.3636 173.097 24.7841C172.888 25.2045 172.784 25.6553 172.784 26.1364V26.9091C172.784 27.5682 172.898 28.1269 173.125 28.5852C173.356 29.0398 173.676 29.3864 174.085 29.625C174.494 29.8598 174.97 29.9773 175.511 29.9773C175.864 29.9773 176.182 29.928 176.466 29.8295C176.754 29.7273 177.002 29.5758 177.21 29.375C177.419 29.1705 177.58 28.9167 177.693 28.6136L178.989 28.9773C178.852 29.4167 178.623 29.803 178.301 30.1364C177.979 30.4659 177.581 30.7235 177.108 30.9091C176.634 31.0909 176.102 31.1818 175.511 31.1818ZM182.506 29.0227L186.71 22.2727H188.256V31H186.915V24.25L182.733 31H181.165V22.2727H182.506V29.0227ZM185.824 19.3636H187.074C187.074 19.9773 186.862 20.4792 186.438 20.8693C186.013 21.2595 185.438 21.4545 184.71 21.4545C183.994 21.4545 183.424 21.2595 183 20.8693C182.58 20.4792 182.369 19.9773 182.369 19.3636H183.619C183.619 19.6591 183.701 19.9186 183.864 20.142C184.03 20.3655 184.313 20.4773 184.71 20.4773C185.108 20.4773 185.392 20.3655 185.562 20.142C185.737 19.9186 185.824 19.6591 185.824 19.3636ZM197.439 22.2727V31H196.098V22.2727H197.439ZM196.916 26.4318V27.6818C196.613 27.7955 196.312 27.8958 196.013 27.983C195.714 28.0663 195.399 28.1326 195.07 28.1818C194.74 28.2273 194.378 28.25 193.984 28.25C192.996 28.25 192.202 27.983 191.604 27.4489C191.009 26.9148 190.712 26.1136 190.712 25.0455V22.25H192.053V25.0455C192.053 25.4924 192.138 25.8598 192.308 26.1477C192.479 26.4356 192.71 26.6496 193.001 26.7898C193.293 26.9299 193.621 27 193.984 27C194.553 27 195.066 26.9489 195.524 26.8466C195.986 26.7405 196.45 26.6023 196.916 26.4318ZM202.467 31.2045C201.914 31.2045 201.412 31.1004 200.962 30.892C200.511 30.6799 200.153 30.375 199.888 29.9773C199.623 29.5758 199.49 29.0909 199.49 28.5227C199.49 28.0227 199.589 27.6174 199.786 27.3068C199.982 26.9924 200.246 26.7462 200.575 26.5682C200.905 26.3902 201.268 26.2576 201.666 26.1705C202.068 26.0795 202.471 26.0076 202.876 25.9545C203.407 25.8864 203.837 25.8352 204.166 25.8011C204.5 25.7633 204.742 25.7008 204.893 25.6136C205.049 25.5265 205.126 25.375 205.126 25.1591V25.1136C205.126 24.553 204.973 24.1174 204.666 23.8068C204.363 23.4962 203.903 23.3409 203.286 23.3409C202.645 23.3409 202.143 23.4811 201.78 23.7614C201.416 24.0417 201.161 24.3409 201.013 24.6591L199.74 24.2045C199.967 23.6742 200.27 23.2614 200.649 22.9659C201.032 22.6667 201.448 22.4583 201.899 22.3409C202.354 22.2197 202.801 22.1591 203.24 22.1591C203.52 22.1591 203.842 22.1932 204.206 22.2614C204.573 22.3258 204.928 22.4602 205.268 22.6648C205.613 22.8693 205.899 23.178 206.126 23.5909C206.354 24.0038 206.467 24.5568 206.467 25.25V31H205.126V29.8182H205.058C204.967 30.0076 204.816 30.2102 204.604 30.4261C204.392 30.642 204.109 30.8258 203.757 30.9773C203.405 31.1288 202.975 31.2045 202.467 31.2045ZM202.672 30C203.202 30 203.649 29.8958 204.013 29.6875C204.38 29.4792 204.657 29.2102 204.842 28.8807C205.032 28.5511 205.126 28.2045 205.126 27.8409V26.6136C205.07 26.6818 204.945 26.7443 204.751 26.8011C204.562 26.8542 204.342 26.9015 204.092 26.9432C203.846 26.9811 203.606 27.0152 203.371 27.0455C203.14 27.072 202.952 27.0947 202.808 27.1136C202.46 27.1591 202.134 27.233 201.831 27.3352C201.532 27.4337 201.289 27.5833 201.104 27.7841C200.922 27.9811 200.831 28.25 200.831 28.5909C200.831 29.0568 201.003 29.4091 201.348 29.6477C201.696 29.8826 202.138 30 202.672 30ZM212.46 31.1818C211.642 31.1818 210.938 30.9886 210.347 30.6023C209.756 30.2159 209.301 29.6837 208.983 29.0057C208.665 28.3277 208.506 27.553 208.506 26.6818C208.506 25.7955 208.669 25.0133 208.994 24.3352C209.324 23.6534 209.782 23.1212 210.369 22.7386C210.96 22.3523 211.65 22.1591 212.438 22.1591C213.051 22.1591 213.604 22.2727 214.097 22.5C214.589 22.7273 214.992 23.0455 215.307 23.4545C215.621 23.8636 215.816 24.3409 215.892 24.8864H214.551C214.449 24.4886 214.222 24.1364 213.869 23.8295C213.521 23.5189 213.051 23.3636 212.46 23.3636C211.938 23.3636 211.479 23.5 211.085 23.7727C210.695 24.0417 210.39 24.4223 210.17 24.9148C209.955 25.4034 209.847 25.9773 209.847 26.6364C209.847 27.3106 209.953 27.8977 210.165 28.3977C210.381 28.8977 210.684 29.286 211.074 29.5625C211.468 29.839 211.93 29.9773 212.46 29.9773C212.809 29.9773 213.125 29.9167 213.409 29.7955C213.693 29.6742 213.934 29.5 214.131 29.2727C214.328 29.0455 214.468 28.7727 214.551 28.4545H215.892C215.816 28.9697 215.629 29.4337 215.33 29.8466C215.034 30.2557 214.642 30.5814 214.153 30.8239C213.669 31.0625 213.104 31.1818 212.46 31.1818Z" fill="white"/>
</svg>
