<svg width="150" height="34" viewBox="0 0 150 34" fill="none" xmlns="http://www.w3.org/2000/svg">
<rect width="150" height="34" rx="5" fill="#2981AE"/>
<path d="M9.23295 21V10.8182H12.7926C13.5019 10.8182 14.0869 10.9408 14.5476 11.1861C15.0083 11.428 15.3513 11.7545 15.5767 12.1655C15.8021 12.5732 15.9148 13.0256 15.9148 13.5227C15.9148 13.9602 15.8369 14.3215 15.6811 14.6065C15.5286 14.8916 15.3265 15.117 15.0746 15.2827C14.826 15.4484 14.5559 15.571 14.2642 15.6506V15.75C14.5758 15.7699 14.889 15.8793 15.2038 16.0781C15.5187 16.277 15.7822 16.562 15.9943 16.9332C16.2064 17.3045 16.3125 17.7585 16.3125 18.2955C16.3125 18.8059 16.1965 19.2649 15.9645 19.6726C15.7325 20.0803 15.3662 20.4034 14.8658 20.642C14.3653 20.8807 13.714 21 12.9119 21H9.23295ZM10.4659 19.9062H12.9119C13.7173 19.9062 14.2891 19.7505 14.6271 19.4389C14.9685 19.1241 15.1392 18.7429 15.1392 18.2955C15.1392 17.9508 15.0514 17.6326 14.8757 17.3409C14.7 17.0459 14.4498 16.8106 14.125 16.6349C13.8002 16.456 13.4157 16.3665 12.9716 16.3665H10.4659V19.9062ZM10.4659 15.2926H12.7528C13.1241 15.2926 13.4588 15.2197 13.7571 15.0739C14.0587 14.928 14.2973 14.7225 14.473 14.4574C14.652 14.1922 14.7415 13.8807 14.7415 13.5227C14.7415 13.0753 14.5857 12.6958 14.2741 12.3842C13.9626 12.0694 13.4688 11.9119 12.7926 11.9119H10.4659V15.2926ZM19.1935 16.1278H21.381C22.2759 16.1278 22.9603 16.3549 23.4343 16.8089C23.9083 17.263 24.1452 17.8381 24.1452 18.5341C24.1452 18.9915 24.0392 19.4074 23.8271 19.782C23.6149 20.1532 23.3034 20.4498 22.8924 20.6719C22.4814 20.8906 21.9776 21 21.381 21H18.1793V13.3636H19.3526V19.9062H21.381C21.8451 19.9062 22.2262 19.7836 22.5245 19.5384C22.8228 19.2931 22.9719 18.9782 22.9719 18.5938C22.9719 18.1894 22.8228 17.8596 22.5245 17.6044C22.2262 17.3492 21.8451 17.2216 21.381 17.2216H19.1935V16.1278ZM25.3583 21V13.3636H26.5316V21H25.3583ZM34.3469 10.5L34.9435 11.2159C34.7115 11.4413 34.4431 11.5987 34.1381 11.6882C33.8332 11.7777 33.4885 11.8324 33.104 11.8523C32.7196 11.8722 32.292 11.892 31.8214 11.9119C31.2911 11.9318 30.8519 12.0611 30.5039 12.2997C30.1559 12.5384 29.8874 12.883 29.6985 13.3338C29.5096 13.7846 29.3886 14.3381 29.3356 14.9943H29.435C29.6935 14.517 30.0515 14.1657 30.5089 13.9403C30.9663 13.715 31.4568 13.6023 31.9805 13.6023C32.5771 13.6023 33.114 13.7415 33.5913 14.0199C34.0685 14.2983 34.4464 14.7109 34.7248 15.2578C35.0032 15.8047 35.1424 16.4792 35.1424 17.2812C35.1424 18.08 34.9999 18.7694 34.7148 19.3494C34.4331 19.9295 34.0371 20.3769 33.5266 20.6918C33.0195 21.0033 32.4246 21.1591 31.7418 21.1591C31.0591 21.1591 30.4608 20.9983 29.9471 20.6768C29.4334 20.352 29.034 19.8714 28.7489 19.2351C28.4639 18.5954 28.3214 17.8049 28.3214 16.8636V16.0483C28.3214 14.348 28.6097 13.0587 29.1864 12.1804C29.7665 11.3021 30.6381 10.848 31.8015 10.8182C32.2125 10.8049 32.5787 10.8016 32.9002 10.8082C33.2217 10.8149 33.5018 10.8 33.7404 10.7635C33.979 10.727 34.1812 10.6392 34.3469 10.5ZM31.7418 20.1051C32.2025 20.1051 32.5986 19.9891 32.93 19.7571C33.2648 19.5251 33.5217 19.1986 33.7006 18.7777C33.8796 18.3535 33.9691 17.8546 33.9691 17.2812C33.9691 16.7244 33.878 16.2505 33.6957 15.8594C33.5167 15.4683 33.2598 15.17 32.9251 14.9645C32.5903 14.759 32.1893 14.6562 31.7219 14.6562C31.3806 14.6562 31.074 14.7143 30.8022 14.8303C30.5304 14.9463 30.2984 15.117 30.1062 15.3423C29.9139 15.5677 29.7648 15.8428 29.6587 16.1676C29.556 16.4924 29.5013 16.8636 29.4947 17.2812C29.4947 18.1364 29.6952 18.8208 30.0962 19.3345C30.4973 19.8482 31.0458 20.1051 31.7418 20.1051ZM36.9371 23.8636V13.3636H38.0707V14.5767H38.2099C38.296 14.4441 38.4154 14.2751 38.5678 14.0696C38.7236 13.8608 38.9457 13.6752 39.234 13.5128C39.5257 13.3471 39.9201 13.2642 40.4173 13.2642C41.0603 13.2642 41.627 13.425 42.1175 13.7464C42.6081 14.0679 42.9909 14.5237 43.266 15.1136C43.5411 15.7036 43.6786 16.3996 43.6786 17.2017C43.6786 18.0104 43.5411 18.7114 43.266 19.3047C42.9909 19.8946 42.6097 20.352 42.1225 20.6768C41.6353 20.9983 41.0735 21.1591 40.4371 21.1591C39.9466 21.1591 39.5539 21.0779 39.2589 20.9155C38.9639 20.7498 38.7369 20.5625 38.5778 20.3537C38.4187 20.1416 38.296 19.9659 38.2099 19.8267H38.1104V23.8636H36.9371ZM38.0906 17.1818C38.0906 17.7585 38.1751 18.2673 38.3441 18.7081C38.5131 19.1456 38.7601 19.4886 39.0849 19.7372C39.4097 19.9825 39.8074 20.1051 40.2781 20.1051C40.7686 20.1051 41.1779 19.9759 41.506 19.7173C41.8375 19.4555 42.0861 19.1042 42.2518 18.6634C42.4208 18.2192 42.5053 17.7254 42.5053 17.1818C42.5053 16.6449 42.4225 16.161 42.2567 15.7301C42.0943 15.2959 41.8474 14.9529 41.516 14.701C41.1879 14.4458 40.7752 14.3182 40.2781 14.3182C39.8008 14.3182 39.3997 14.4392 39.0749 14.6811C38.7501 14.9197 38.5049 15.2545 38.3391 15.6854C38.1734 16.1129 38.0906 16.6117 38.0906 17.1818ZM47.7156 21.179C47.2317 21.179 46.7925 21.0878 46.3981 20.9055C46.0037 20.7199 45.6905 20.4531 45.4585 20.1051C45.2264 19.7538 45.1104 19.3295 45.1104 18.8324C45.1104 18.3949 45.1966 18.0402 45.369 17.7685C45.5413 17.4934 45.7717 17.2779 46.06 17.1222C46.3484 16.9664 46.6665 16.8504 47.0146 16.7741C47.3659 16.6946 47.7189 16.6316 48.0735 16.5852C48.5375 16.5256 48.9137 16.4808 49.2021 16.451C49.4937 16.4179 49.7058 16.3632 49.8384 16.2869C49.9743 16.2107 50.0423 16.0781 50.0423 15.8892V15.8494C50.0423 15.3589 49.908 14.9777 49.6396 14.706C49.3744 14.4342 48.9717 14.2983 48.4315 14.2983C47.8713 14.2983 47.4322 14.4209 47.114 14.6662C46.7958 14.9115 46.5721 15.1733 46.4428 15.4517L45.3292 15.054C45.5281 14.59 45.7932 14.2287 46.1246 13.9702C46.4594 13.7083 46.824 13.526 47.2184 13.4233C47.6161 13.3172 48.0072 13.2642 48.3917 13.2642C48.637 13.2642 48.9187 13.294 49.2369 13.3537C49.5584 13.41 49.8683 13.5277 50.1665 13.7067C50.4682 13.8857 50.7184 14.1558 50.9173 14.517C51.1161 14.8783 51.2156 15.3622 51.2156 15.9688V21H50.0423V19.9659H49.9826C49.9031 20.1316 49.7705 20.3089 49.5849 20.4979C49.3993 20.6868 49.1523 20.8475 48.8441 20.9801C48.5359 21.1127 48.1597 21.179 47.7156 21.179ZM47.8945 20.125C48.3585 20.125 48.7496 20.0339 49.0678 19.8516C49.3893 19.6693 49.6313 19.4339 49.7937 19.1456C49.9594 18.8572 50.0423 18.554 50.0423 18.2358V17.1619C49.9925 17.2216 49.8832 17.2763 49.7141 17.326C49.5484 17.3724 49.3562 17.4138 49.1374 17.4503C48.922 17.4834 48.7115 17.5133 48.506 17.5398C48.3039 17.563 48.1398 17.5829 48.0138 17.5994C47.7089 17.6392 47.4239 17.7038 47.1587 17.7933C46.8969 17.8795 46.6848 18.0104 46.5224 18.1861C46.3633 18.3584 46.2837 18.5937 46.2837 18.892C46.2837 19.2997 46.4345 19.608 46.7362 19.8168C47.0411 20.0223 47.4272 20.125 47.8945 20.125ZM52.318 14.4574V13.3636H58.5225V14.4574H56.0169V21H54.8436V14.4574H52.318ZM61.2482 16.1278H63.4357C64.3306 16.1278 65.015 16.3549 65.489 16.8089C65.963 17.263 66.1999 17.8381 66.1999 18.5341C66.1999 18.9915 66.0939 19.4074 65.8817 19.782C65.6696 20.1532 65.3581 20.4498 64.9471 20.6719C64.5361 20.8906 64.0323 21 63.4357 21H60.234V13.3636H61.4073V19.9062H63.4357C63.8997 19.9062 64.2809 19.7836 64.5792 19.5384C64.8775 19.2931 65.0266 18.9782 65.0266 18.5938C65.0266 18.1894 64.8775 17.8596 64.5792 17.6044C64.2809 17.3492 63.8997 17.2216 63.4357 17.2216H61.2482V16.1278ZM71.9235 21V13.3636H77.9292V21H76.7559V14.4574H73.0968V21H71.9235ZM83.1742 21.1591C82.4583 21.1591 81.8418 20.9901 81.3248 20.652C80.8077 20.3139 80.41 19.8482 80.1316 19.255C79.8532 18.6617 79.714 17.9839 79.714 17.2216C79.714 16.446 79.8565 15.7616 80.1415 15.1683C80.4299 14.5717 80.8309 14.1061 81.3446 13.7713C81.8617 13.4332 82.4649 13.2642 83.1543 13.2642C83.6912 13.2642 84.1751 13.3636 84.606 13.5625C85.0369 13.7614 85.3899 14.0398 85.665 14.3977C85.94 14.7557 86.1107 15.1733 86.177 15.6506H85.0037C84.9142 15.3026 84.7154 14.9943 84.4071 14.7259C84.1022 14.4541 83.6912 14.3182 83.1742 14.3182C82.7168 14.3182 82.3158 14.4375 81.9711 14.6761C81.6297 14.9115 81.3629 15.2446 81.1706 15.6754C80.9817 16.103 80.8873 16.6051 80.8873 17.1818C80.8873 17.7718 80.9801 18.2855 81.1657 18.723C81.3546 19.1605 81.6197 19.5002 81.9611 19.7422C82.3058 19.9841 82.7102 20.1051 83.1742 20.1051C83.4791 20.1051 83.7559 20.0521 84.0044 19.946C84.253 19.84 84.4635 19.6875 84.6358 19.4886C84.8082 19.2898 84.9308 19.0511 85.0037 18.7727H86.177C86.1107 19.2235 85.9467 19.6295 85.6848 19.9908C85.4263 20.3487 85.0833 20.6338 84.6557 20.8459C84.2315 21.0547 83.7376 21.1591 83.1742 21.1591ZM89.0655 19.2699L92.7445 13.3636H94.0968V21H92.9235V15.0938L89.2644 21H87.8922V13.3636H89.0655V19.2699ZM97.1207 13.3636L98.9503 16.4858L100.78 13.3636H102.132L99.6662 17.1818L102.132 21H100.78L98.9503 18.0369L97.1207 21H95.7685L98.1946 17.1818L95.7685 13.3636H97.1207ZM106.594 21.1591C105.905 21.1591 105.3 20.995 104.779 20.6669C104.262 20.3388 103.858 19.8797 103.566 19.2898C103.278 18.6998 103.134 18.0104 103.134 17.2216C103.134 16.4261 103.278 15.7318 103.566 15.1385C103.858 14.5452 104.262 14.0845 104.779 13.7564C105.3 13.4283 105.905 13.2642 106.594 13.2642C107.283 13.2642 107.887 13.4283 108.404 13.7564C108.924 14.0845 109.328 14.5452 109.617 15.1385C109.908 15.7318 110.054 16.4261 110.054 17.2216C110.054 18.0104 109.908 18.6998 109.617 19.2898C109.328 19.8797 108.924 20.3388 108.404 20.6669C107.887 20.995 107.283 21.1591 106.594 21.1591ZM106.594 20.1051C107.118 20.1051 107.549 19.9709 107.887 19.7024C108.225 19.4339 108.475 19.081 108.637 18.6435C108.8 18.206 108.881 17.732 108.881 17.2216C108.881 16.7112 108.8 16.2356 108.637 15.7947C108.475 15.3539 108.225 14.9976 107.887 14.7259C107.549 14.4541 107.118 14.3182 106.594 14.3182C106.07 14.3182 105.64 14.4541 105.301 14.7259C104.963 14.9976 104.713 15.3539 104.551 15.7947C104.388 16.2356 104.307 16.7112 104.307 17.2216C104.307 17.732 104.388 18.206 104.551 18.6435C104.713 19.081 104.963 19.4339 105.301 19.7024C105.64 19.9709 106.07 20.1051 106.594 20.1051ZM111.169 21V19.9062H111.448C111.676 19.9062 111.867 19.8615 112.019 19.772C112.172 19.6792 112.294 19.5185 112.387 19.2898C112.483 19.0578 112.556 18.7363 112.606 18.3253C112.659 17.911 112.697 17.384 112.72 16.7443L112.86 13.3636H117.95V21H116.777V14.4574H113.973L113.854 17.1818C113.827 17.8082 113.771 18.3601 113.685 18.8374C113.602 19.3113 113.474 19.709 113.302 20.0305C113.133 20.352 112.908 20.594 112.626 20.7564C112.344 20.9188 111.991 21 111.567 21H111.169ZM123.205 21.1591C122.516 21.1591 121.911 20.995 121.391 20.6669C120.874 20.3388 120.469 19.8797 120.178 19.2898C119.889 18.6998 119.745 18.0104 119.745 17.2216C119.745 16.4261 119.889 15.7318 120.178 15.1385C120.469 14.5452 120.874 14.0845 121.391 13.7564C121.911 13.4283 122.516 13.2642 123.205 13.2642C123.895 13.2642 124.498 13.4283 125.015 13.7564C125.535 14.0845 125.94 14.5452 126.228 15.1385C126.52 15.7318 126.666 16.4261 126.666 17.2216C126.666 18.0104 126.52 18.6998 126.228 19.2898C125.94 19.8797 125.535 20.3388 125.015 20.6669C124.498 20.995 123.895 21.1591 123.205 21.1591ZM123.205 20.1051C123.729 20.1051 124.16 19.9709 124.498 19.7024C124.836 19.4339 125.086 19.081 125.249 18.6435C125.411 18.206 125.492 17.732 125.492 17.2216C125.492 16.7112 125.411 16.2356 125.249 15.7947C125.086 15.3539 124.836 14.9976 124.498 14.7259C124.16 14.4541 123.729 14.3182 123.205 14.3182C122.682 14.3182 122.251 14.4541 121.913 14.7259C121.575 14.9976 121.325 15.3539 121.162 15.7947C121 16.2356 120.919 16.7112 120.919 17.2216C120.919 17.732 121 18.206 121.162 18.6435C121.325 19.081 121.575 19.4339 121.913 19.7024C122.251 19.9709 122.682 20.1051 123.205 20.1051ZM133.17 13.3636V14.4574H129.63V21H128.457V13.3636H133.17ZM136.733 21.179C136.249 21.179 135.81 21.0878 135.416 20.9055C135.021 20.7199 134.708 20.4531 134.476 20.1051C134.244 19.7538 134.128 19.3295 134.128 18.8324C134.128 18.3949 134.214 18.0402 134.387 17.7685C134.559 17.4934 134.789 17.2779 135.078 17.1222C135.366 16.9664 135.684 16.8504 136.032 16.7741C136.383 16.6946 136.736 16.6316 137.091 16.5852C137.555 16.5256 137.931 16.4808 138.22 16.451C138.511 16.4179 138.723 16.3632 138.856 16.2869C138.992 16.2107 139.06 16.0781 139.06 15.8892V15.8494C139.06 15.3589 138.926 14.9777 138.657 14.706C138.392 14.4342 137.989 14.2983 137.449 14.2983C136.889 14.2983 136.45 14.4209 136.132 14.6662C135.813 14.9115 135.59 15.1733 135.46 15.4517L134.347 15.054C134.546 14.59 134.811 14.2287 135.142 13.9702C135.477 13.7083 135.842 13.526 136.236 13.4233C136.634 13.3172 137.025 13.2642 137.409 13.2642C137.655 13.2642 137.936 13.294 138.254 13.3537C138.576 13.41 138.886 13.5277 139.184 13.7067C139.486 13.8857 139.736 14.1558 139.935 14.517C140.134 14.8783 140.233 15.3622 140.233 15.9688V21H139.06V19.9659H139C138.921 20.1316 138.788 20.3089 138.602 20.4979C138.417 20.6868 138.17 20.8475 137.862 20.9801C137.553 21.1127 137.177 21.179 136.733 21.179ZM136.912 20.125C137.376 20.125 137.767 20.0339 138.085 19.8516C138.407 19.6693 138.649 19.4339 138.811 19.1456C138.977 18.8572 139.06 18.554 139.06 18.2358V17.1619C139.01 17.2216 138.901 17.2763 138.732 17.326C138.566 17.3724 138.374 17.4138 138.155 17.4503C137.94 17.4834 137.729 17.5133 137.524 17.5398C137.321 17.563 137.157 17.5829 137.031 17.5994C136.727 17.6392 136.441 17.7038 136.176 17.7933C135.914 17.8795 135.702 18.0104 135.54 18.1861C135.381 18.3584 135.301 18.5937 135.301 18.892C135.301 19.2997 135.452 19.608 135.754 19.8168C136.059 20.0223 136.445 20.125 136.912 20.125Z" fill="white"/>
</svg>
