<svg width="211" height="49" viewBox="0 0 211 49" fill="none" xmlns="http://www.w3.org/2000/svg">
<path d="M42.8262 13.7305C46.4883 13.7305 49.2422 14.6143 51.088 16.3818C52.9434 18.1494 53.8712 20.7764 53.8712 24.2627C53.8712 27.7783 52.9337 30.4492 51.0587 32.2754C49.1934 34.0918 46.4493 35 42.8262 35H35.6924V13.7305H42.8262ZM43.1339 31.5869C45.1163 31.5869 46.6153 30.9766 47.6309 29.7559C48.6465 28.5352 49.1544 26.7236 49.1544 24.3213C49.1544 21.958 48.6514 20.1758 47.6456 18.9746C46.6397 17.7734 45.1358 17.1729 43.1339 17.1729H40.2188V31.5869H43.1339ZM57.4014 13.7305H61.9864V35H57.4014V13.7305ZM70.8487 29.5361L69.1202 35H64.6085L71.5079 13.7305H77.5723L84.6475 35H80.209L78.4073 29.5361H70.8487ZM74.4815 17.6562L71.8741 26.1523H77.3672L74.6866 17.6562H74.4815ZM102.812 33.6816C101.689 34.1797 100.492 34.5654 99.2227 34.8389C97.9532 35.1025 96.7081 35.2344 95.4874 35.2344C92.1866 35.2344 89.6329 34.292 87.8262 32.4072C86.0196 30.5127 85.1163 27.8369 85.1163 24.3799C85.1163 20.9033 86.0489 18.2178 87.9141 16.3232C89.7891 14.4189 92.4356 13.4668 95.8536 13.4668C97.0547 13.4668 98.2559 13.6133 99.4571 13.9062C100.658 14.1895 101.737 14.5898 102.694 15.1074L101.347 18.3447C100.331 17.9248 99.4424 17.6221 98.6807 17.4365C97.919 17.2412 97.1573 17.1436 96.3956 17.1436C94.2374 17.1436 92.6016 17.749 91.4883 18.96C90.3751 20.1709 89.8184 21.9482 89.8184 24.292C89.8184 26.6162 90.3311 28.418 91.3565 29.6973C92.3917 30.9766 93.8516 31.6162 95.7364 31.6162C96.6934 31.6162 97.6309 31.4844 98.5489 31.2207V24.2041H102.812V33.6816ZM114.12 25.5811C113.417 24.585 112.318 22.8125 110.824 20.2637V35H106.649V13.7305H110.282L116.757 22.9736C117.577 24.1357 118.72 25.9326 120.185 28.3643V13.7305H124.374V35H120.712L114.12 25.5811ZM138.085 13.4229C141.386 13.4229 143.91 14.3604 145.658 16.2354C147.406 18.1006 148.28 20.7764 148.28 24.2627C148.28 27.8271 147.411 30.5518 145.673 32.4365C143.935 34.3213 141.405 35.2637 138.085 35.2637C134.745 35.2637 132.211 34.3262 130.482 32.4512C128.754 30.5664 127.89 27.8369 127.89 24.2627C127.89 20.7861 128.764 18.1104 130.512 16.2354C132.26 14.3604 134.784 13.4229 138.085 13.4229ZM138.085 17.0264C136.269 17.0264 134.901 17.6367 133.983 18.8574C133.075 20.0781 132.621 21.8799 132.621 24.2627C132.621 26.6846 133.08 28.5254 133.998 29.7852C134.926 31.0449 136.288 31.6748 138.085 31.6748C139.882 31.6748 141.239 31.0449 142.157 29.7852C143.085 28.5254 143.549 26.6846 143.549 24.2627C143.549 21.8994 143.085 20.1025 142.157 18.8721C141.239 17.6416 139.882 17.0264 138.085 17.0264ZM158.578 13.4668C160.336 13.457 162.314 13.8428 164.511 14.624L163.588 18.1396C161.547 17.417 159.887 17.0557 158.607 17.0557C157.572 17.0557 156.757 17.2607 156.161 17.6709C155.565 18.0811 155.268 18.6377 155.268 19.3408C155.268 20.1025 155.541 20.708 156.088 21.1572C156.645 21.6064 157.655 22.0215 159.12 22.4023C161.278 22.959 162.812 23.7305 163.72 24.7168C164.628 25.6934 165.082 27.041 165.082 28.7598C165.082 30.8398 164.379 32.4365 162.973 33.5498C161.576 34.6533 159.579 35.2051 156.982 35.2051C154.862 35.2051 152.592 34.7266 150.17 33.7695L151.254 30.3564C152.592 30.835 153.686 31.1719 154.535 31.3672C155.385 31.5527 156.19 31.6455 156.952 31.6455C158.056 31.6455 158.905 31.4111 159.501 30.9424C160.107 30.4639 160.409 29.8047 160.409 28.9648C160.409 28.4277 160.282 27.9785 160.028 27.6172C159.774 27.2559 159.345 26.9336 158.739 26.6504C158.134 26.3574 157.26 26.0693 156.117 25.7861C154.213 25.3271 152.821 24.6143 151.942 23.6475C151.064 22.6807 150.624 21.4062 150.624 19.8242C150.624 17.8027 151.317 16.2402 152.704 15.1367C154.101 14.0234 156.059 13.4668 158.578 13.4668ZM181.884 17.2168H176.127V35H171.542V17.2168H165.565V13.7305H181.884V17.2168ZM184.521 13.7305H189.106V35H184.521V13.7305ZM202.978 13.4668C204.101 13.4668 205.219 13.6133 206.332 13.9062C207.455 14.1895 208.461 14.5898 209.35 15.1074L207.987 18.2861C207.148 17.8857 206.371 17.5977 205.658 17.4219C204.955 17.2363 204.242 17.1436 203.52 17.1436C201.498 17.1436 199.96 17.7539 198.905 18.9746C197.86 20.1953 197.338 21.9678 197.338 24.292C197.338 26.6553 197.86 28.4473 198.905 29.668C199.96 30.8789 201.498 31.4844 203.52 31.4844C205.082 31.4844 206.713 31.1279 208.412 30.415L209.525 33.7695C207.328 34.7461 205.126 35.2344 202.919 35.2344C199.599 35.2344 197.055 34.3018 195.287 32.4365C193.52 30.5615 192.636 27.876 192.636 24.3799C192.636 22.124 193.046 20.1758 193.866 18.5352C194.687 16.8945 195.868 15.6396 197.411 14.7705C198.964 13.9014 200.819 13.4668 202.978 13.4668Z" fill="#929292"/>
<path d="M32.9967 19.1286C32.9698 18.1909 32.2687 17.4375 31.4004 17.4059L31.1739 17.4006C30.64 17.4006 29.157 17.4586 27.3288 17.8379C26.9999 15.1723 26.3366 13.2758 26.2826 13.123C26.1208 12.6699 25.7919 12.3117 25.3766 12.1273C25.1717 12.0378 24.9614 11.9903 24.7457 11.9903C24.5192 11.9903 24.2927 12.043 24.0823 12.1431C23.9637 12.2011 22.6263 12.849 20.9653 14.1081C19.5092 11.1211 17.8212 9.19301 17.6972 9.05604C17.3736 8.71361 16.9476 8.51343 16.4946 8.51343C16.047 8.51343 15.6156 8.71361 15.3028 9.06131C15.1788 9.19828 13.4908 11.1317 12.0347 14.1186C10.3737 12.8596 9.04169 12.2063 8.92305 12.1484C8.71273 12.0483 8.48623 11.9956 8.25973 11.9956C8.04402 11.9956 7.8283 12.043 7.62877 12.1326C7.21352 12.317 6.88455 12.6805 6.72277 13.1282C6.66884 13.281 6.00552 15.1723 5.67656 17.8432C3.84299 17.4586 2.36535 17.4059 1.83146 17.4059L1.59957 17.4112C0.731317 17.4428 0.0302462 18.1961 0.00328197 19.1338C-0.00750372 19.4657 -0.180075 27.3573 4.37149 32.2618C8.52937 36.745 15.0601 36.9715 16.322 36.9715H16.4892C16.4946 36.9715 16.4946 36.9715 16.5 36.9715C16.5054 36.9715 16.5054 36.9715 16.5108 36.9715H16.678C17.9453 36.9715 24.4706 36.745 28.6285 32.2618C33.1801 27.352 33.0075 19.4605 32.9967 19.1286ZM24.7349 13.7762C24.7349 13.7762 25.3982 15.6411 25.7002 18.2593C24.7457 18.5491 23.7534 18.9336 22.7665 19.4552C22.513 18.1329 22.1247 16.8896 21.6771 15.757C23.3597 14.44 24.7349 13.7762 24.7349 13.7762ZM8.25434 13.7762C8.25434 13.7762 9.63491 14.44 11.3175 15.7517C10.8645 16.8896 10.4816 18.1329 10.2227 19.4657C9.23584 18.9495 8.24355 18.5543 7.28902 18.2646C7.59102 15.6411 8.25434 13.7762 8.25434 13.7762ZM5.53095 30.9975C1.43239 26.5776 1.6481 19.1865 1.6481 19.1865C1.6481 19.1865 1.71281 19.1865 1.82606 19.1865C2.68892 19.1865 6.5448 19.334 9.95848 21.3148C9.92073 21.7837 9.89376 22.2578 9.89376 22.7372C9.89376 28.2107 12.6495 32.8361 14.2296 35.0381C11.8622 34.7378 8.14109 33.8106 5.53095 30.9975ZM16.5324 35.1435C16.5 35.1329 16.4676 35.1224 16.4299 35.1066C15.8475 34.4217 11.5494 29.1484 11.5494 22.7372C11.5494 15.8624 16.5 10.2888 16.5 10.2888C16.5 10.2888 21.4452 15.8624 21.4452 22.7372C21.4452 29.3381 16.8991 34.7168 16.5324 35.1435ZM27.4637 30.9975C24.8535 33.8106 21.1271 34.7378 18.765 35.0381C20.3451 32.8361 23.1008 28.2107 23.1008 22.7372C23.1008 22.2525 23.0793 21.7731 23.0361 21.3043C26.4498 19.3235 30.3057 19.1812 31.1739 19.1812C31.2872 19.1812 31.3519 19.1812 31.3519 19.1812C31.3519 19.1812 31.5622 26.5776 27.4637 30.9975Z" fill="#929292"/>
</svg>
