<?xml version="1.0" encoding="utf-8"?>
<!-- Generator: Adobe Illustrator 25.4.1, SVG Export Plug-In . SVG Version: 6.00 Build 0)  -->
<svg version="1.1" id="Слой_1" xmlns="http://www.w3.org/2000/svg" xmlns:xlink="http://www.w3.org/1999/xlink" x="0px" y="0px"
	 viewBox="0 0 500 200" style="enable-background:new 0 0 500 200;" xml:space="preserve">
<style type="text/css">
	.st0{fill:#2981AE;}
	.st1{font-family:'Sarala-Bold';}
	.st2{font-size:67.9257px;}
</style>
<g>
	<g>
		<g>
			<g>
				<path class="st0" d="M80.57,80.15c-0.05-1.78-1.35-3.21-2.96-3.27l-0.42-0.01c-0.99,0-3.74,0.11-7.13,0.83
					c-0.61-5.06-1.84-8.66-1.94-8.95c-0.3-0.86-0.91-1.54-1.68-1.89c-0.38-0.17-0.77-0.26-1.17-0.26c-0.42,0-0.84,0.1-1.23,0.29
					c-0.22,0.11-2.7,1.34-5.78,3.73c-2.7-5.67-5.83-9.33-6.06-9.59C51.6,60.38,50.81,60,49.97,60c-0.83,0-1.63,0.38-2.21,1.04
					c-0.23,0.26-3.36,3.93-6.06,9.6c-3.08-2.39-5.55-3.63-5.77-3.74c-0.39-0.19-0.81-0.29-1.23-0.29c-0.4,0-0.8,0.09-1.17,0.26
					c-0.77,0.35-1.38,1.04-1.68,1.89c-0.1,0.29-1.33,3.88-1.94,8.95c-3.4-0.73-6.14-0.83-7.13-0.83l-0.43,0.01
					c-1.61,0.06-2.91,1.49-2.96,3.27c-0.02,0.63-0.34,15.61,8.1,24.92c7.71,8.51,19.82,8.94,22.16,8.94l0.31,0c0.01,0,0.01,0,0.02,0
					c0.01,0,0.01,0,0.02,0l0.31,0c2.35,0,14.45-0.43,22.16-8.94C80.91,95.76,80.59,80.78,80.57,80.15z M65.25,69.99
					c0,0,1.23,3.54,1.79,8.51c-1.77,0.55-3.61,1.28-5.44,2.27c-0.47-2.51-1.19-4.87-2.02-7.02C62.7,71.25,65.25,69.99,65.25,69.99z
					 M34.69,69.99c0,0,2.56,1.26,5.68,3.75c-0.84,2.16-1.55,4.52-2.03,7.05c-1.83-0.98-3.67-1.73-5.44-2.28
					C33.46,73.53,34.69,69.99,34.69,69.99z M29.64,102.68c-7.6-8.39-7.2-22.42-7.2-22.42s0.12,0,0.33,0c1.6,0,8.75,0.28,15.08,4.04
					c-0.07,0.89-0.12,1.79-0.12,2.7c0,10.39,5.11,19.17,8.04,23.35C41.38,109.78,34.48,108.02,29.64,102.68z M50.04,110.55
					c-0.06-0.02-0.12-0.04-0.19-0.07c-1.08-1.3-9.05-11.31-9.05-23.48c0-13.05,9.18-23.63,9.18-23.63S59.15,73.95,59.15,87
					C59.15,99.53,50.72,109.74,50.04,110.55z M70.31,102.68c-4.84,5.34-11.75,7.1-16.13,7.67c2.93-4.18,8.04-12.96,8.04-23.35
					c0-0.92-0.04-1.83-0.12-2.72c6.33-3.76,13.48-4.03,15.09-4.03c0.21,0,0.33,0,0.33,0S77.91,94.29,70.31,102.68z"/>
			</g>
		</g>
	</g>
	<text transform="matrix(1 0 0 1 80.538 113.416)" class="st0 st1 st2">DIAGNOSTIC</text>
</g>
</svg>
