<svg width="25" height="573" viewBox="0 0 25 573" fill="none" xmlns="http://www.w3.org/2000/svg">
<line x1="13.5" x2="13.5" y2="573" stroke="#2981AE" stroke-width="3"/>
<circle cx="12.5" cy="20.5" r="12.5" fill="#2981AE"/>
<circle cx="12.5" cy="149.5" r="12.5" fill="#2981AE"/>
<path d="M25 304.5C25 311.404 19.4036 317 12.5 317C5.59644 317 0 311.404 0 304.5C0 297.596 5.59644 292 12.5 292C19.4036 292 25 297.596 25 304.5Z" fill="#2981AE"/>
<path d="M25 459.5C25 466.404 19.4036 472 12.5 472C5.59644 472 0 466.404 0 459.5C0 452.596 5.59644 447 12.5 447C19.4036 447 25 452.596 25 459.5Z" fill="#2981AE"/>
</svg>
