<svg width="25" height="25" viewBox="0 0 25 25" fill="none" xmlns="http://www.w3.org/2000/svg">
<path d="M12.5 12.5C15.9521 12.5 18.75 9.70215 18.75 6.25C18.75 2.79785 15.9521 0 12.5 0C9.04785 0 6.25 2.79785 6.25 6.25C6.25488 9.70215 9.04785 12.4951 12.5 12.5ZM12.5 2.08496C14.7998 2.08496 16.665 3.9502 16.665 6.25C16.665 8.5498 14.7998 10.415 12.5 10.415C10.2002 10.415 8.33496 8.5498 8.33496 6.25C8.33496 3.9502 10.2002 2.08496 12.5 2.08496Z" fill="#2981AE"/>
<path d="M12.5 14.585C7.32422 14.5898 3.12988 18.7842 3.125 23.96C3.125 24.5361 3.59375 25 4.16504 25C4.73633 25 5.20508 24.5313 5.20508 23.96C5.20508 19.9316 8.47168 16.6699 12.4951 16.6699C16.5186 16.6699 19.7852 19.9365 19.7852 23.96C19.7852 24.5361 20.2539 25 20.8252 25C21.4014 25 21.8652 24.5313 21.8652 23.96C21.8701 18.7842 17.6758 14.5898 12.5 14.585Z" fill="#2981AE"/>
</svg>
